<svg width="52" height="52" viewBox="0 0 52 52" fill="none" xmlns="http://www.w3.org/2000/svg">
<path d="M26 13C29.4478 13 32.7544 14.3696 35.1924 16.8076C37.6303 19.2456 39 22.5522 39 26C39 30.81 36.3783 35.0133 32.5 37.2667V41.1667C32.5 41.7413 32.2717 42.2924 31.8654 42.6987C31.4591 43.105 30.908 43.3333 30.3333 43.3333H21.6667C21.092 43.3333 20.5409 43.105 20.1346 42.6987C19.7283 42.2924 19.5 41.7413 19.5 41.1667V37.2667C15.6217 35.0133 13 30.81 13 26C13 22.5522 14.3696 19.2456 16.8076 16.8076C19.2456 14.3696 22.5522 13 26 13ZM30.3333 45.5V47.6667C30.3333 48.2413 30.105 48.7924 29.6987 49.1987C29.2924 49.605 28.7413 49.8333 28.1667 49.8333H23.8333C23.2587 49.8333 22.7076 49.605 22.3013 49.1987C21.8949 48.7924 21.6667 48.2413 21.6667 47.6667V45.5H30.3333ZM43.3333 23.8333H49.8333V28.1667H43.3333V23.8333ZM2.16666 23.8333H8.66666V28.1667H2.16666V23.8333ZM28.1667 2.16666V8.66666H23.8333V2.16666H28.1667ZM10.66 7.58332L15.275 12.22L12.1983 15.275L7.58332 10.6817L10.66 7.58332ZM36.725 12.1983L41.3183 7.58332L44.4167 10.6817L39.8017 15.275L36.725 12.1983Z" fill="white"/>
</svg>
