<svg width="21" height="16" viewBox="0 0 21 16" fill="none" xmlns="http://www.w3.org/2000/svg">
<path d="M19.6528 6.98632C20.1157 7.59179 20.1157 8.40917 19.6528 9.01367C18.1948 10.917 14.6968 14.8359 10.6128 14.8359C6.5288 14.8359 3.03075 10.917 1.57275 9.01367C1.34753 8.72376 1.22528 8.3671 1.22528 7.99999C1.22528 7.63289 1.34753 7.27623 1.57275 6.98632C3.03075 5.083 6.5288 1.16406 10.6128 1.16406C14.6968 1.16406 18.1948 5.083 19.6528 6.98632V6.98632Z" stroke="white" stroke-width="2" stroke-linecap="round" stroke-linejoin="round"/>
<path d="M10.6128 10.9297C12.2308 10.9297 13.5425 9.61802 13.5425 8C13.5425 6.38198 12.2308 5.07031 10.6128 5.07031C8.99477 5.07031 7.68311 6.38198 7.68311 8C7.68311 9.61802 8.99477 10.9297 10.6128 10.9297Z" stroke="white" stroke-width="2" stroke-linecap="round" stroke-linejoin="round"/>
</svg>
