<svg width="346" height="202" viewBox="0 0 346 202" fill="none" xmlns="http://www.w3.org/2000/svg">
<g clip-path="url(#clip0_7_58)">
<path d="M346 54.4229H200.563V58.6902H346V54.4229Z" fill="#E6E6E6"/>
<path d="M249.43 18.732H212.586V55.5867H249.43V18.732Z" fill="#E6E6E6"/>
<path d="M242.061 26.1029H219.955V48.2157H242.061V26.1029Z" fill="#CCCCCC"/>
<path d="M304.502 18.732H295.194V55.5867H304.502V18.732Z" fill="#E6E6E6"/>
<path d="M304.502 24.5512H295.194V28.8186H304.502V24.5512Z" fill="#CCCCCC"/>
<path d="M304.502 43.1725H295.194V47.4398H304.502V43.1725Z" fill="#CCCCCC"/>
<path d="M290.152 18.732H280.844V55.5867H290.152V18.732Z" fill="#E6E6E6"/>
<path d="M290.152 24.5512H280.844V28.8186H290.152V24.5512Z" fill="#CCCCCC"/>
<path d="M290.152 43.1725H280.844V47.4398H290.152V43.1725Z" fill="#CCCCCC"/>
<path d="M312.522 18.5796L304.18 22.7107L320.528 55.7391L328.869 51.608L312.522 18.5796Z" fill="#E6E6E6"/>
<path d="M315.103 23.7946L306.762 27.9257L308.654 31.75L316.996 27.619L315.103 23.7946Z" fill="#CCCCCC"/>
<path d="M323.363 40.4827L315.021 44.6137L316.914 48.4381L325.256 44.307L323.363 40.4827Z" fill="#CCCCCC"/>
<path d="M226.354 33.5255L231.042 41.6465L235.729 49.7675H226.354H216.98L221.667 41.6465L226.354 33.5255Z" fill="#E6E6E6"/>
<path d="M234.499 35.0773L239.186 43.1983L243.873 51.3193H234.499H225.124L229.811 43.1983L234.499 35.0773Z" fill="#E6E6E6"/>
<path d="M237.795 32.698C239.295 32.698 240.51 31.4822 240.51 29.9824C240.51 28.4826 239.295 27.2668 237.795 27.2668C236.296 27.2668 235.08 28.4826 235.08 29.9824C235.08 31.4822 236.296 32.698 237.795 32.698Z" fill="#E6E6E6"/>
<path d="M200.563 0.110657L346 0.110657V-4.15673L200.563 -4.15673V0.110657Z" fill="#E6E6E6"/>
<path d="M200.563 117.27L346 117.27V113.002L200.563 113.002V117.27Z" fill="#E6E6E6"/>
<path d="M297.133 114.166H333.977V77.3116H297.133V114.166Z" fill="#E6E6E6"/>
<path d="M304.502 106.795H326.608V84.6825H304.502V106.795Z" fill="#CCCCCC"/>
<path d="M242.061 114.166H251.369V77.3116H242.061V114.166Z" fill="#E6E6E6"/>
<path d="M242.061 87.3981H251.369V83.1307H242.061V87.3981Z" fill="#CCCCCC"/>
<path d="M242.061 106.019H251.369V101.752H242.061V106.019Z" fill="#CCCCCC"/>
<path d="M256.411 114.166H265.719V77.3116H256.411V114.166Z" fill="#E6E6E6"/>
<path d="M256.411 87.3981H265.719V83.1307H256.411V87.3981Z" fill="#CCCCCC"/>
<path d="M256.411 106.019H265.719V101.752H256.411V106.019Z" fill="#CCCCCC"/>
<path d="M217.694 110.188L226.036 114.319L242.383 81.2902L234.041 77.1592L217.694 110.188Z" fill="#E6E6E6"/>
<path d="M229.567 86.1985L237.909 90.3296L239.802 86.5052L231.46 82.3742L229.567 86.1985Z" fill="#CCCCCC"/>
<path d="M221.308 102.887L229.649 107.018L231.542 103.193L223.201 99.0622L221.308 102.887Z" fill="#CCCCCC"/>
<path d="M320.209 92.1048L315.522 100.226L310.835 108.347H320.209H329.584L324.896 100.226L320.209 92.1048Z" fill="#E6E6E6"/>
<path d="M312.065 93.6566L307.377 101.778L302.69 109.899H312.065H321.44L316.752 101.778L312.065 93.6566Z" fill="#E6E6E6"/>
<path d="M308.768 91.2776C310.268 91.2776 311.483 90.0617 311.483 88.562C311.483 87.0622 310.268 85.8463 308.768 85.8463C307.269 85.8463 306.053 87.0622 306.053 88.562C306.053 90.0617 307.269 91.2776 308.768 91.2776Z" fill="#E6E6E6"/>
<path d="M171.324 216C265.944 216 342.649 210.551 342.649 203.829C342.649 197.106 265.944 191.657 171.324 191.657C76.7045 191.657 0 197.106 0 203.829C0 210.551 76.7045 216 171.324 216Z" fill="white"/>
<path d="M305.172 209.645C277.236 204.671 246.687 205.498 214.642 209.645C229.248 197.311 241.853 184.977 227.248 172.643C255.737 178.522 259.728 177.927 291.42 172.643C284.069 184.977 297.821 197.311 305.172 209.645Z" fill="#6C63FF"/>
<path opacity="0.2" d="M305.172 209.645C277.236 204.671 246.687 205.498 214.642 209.645C229.248 197.311 241.853 184.977 227.248 172.643C255.737 178.522 259.728 177.927 291.42 172.643C284.069 184.977 297.821 197.311 305.172 209.645Z" fill="black"/>
<path d="M298.358 204.383C274.627 200.413 248.677 201.073 221.456 204.383C233.863 194.538 244.571 184.692 232.164 174.847C256.365 179.54 259.755 179.065 286.676 174.847C280.432 184.692 292.113 194.538 298.358 204.383Z" fill="url(#paint0_linear_7_58)"/>
<path d="M289.319 188.52C296.302 188.52 301.963 182.857 301.963 175.872C301.963 168.887 296.302 163.224 289.319 163.224C282.336 163.224 276.675 168.887 276.675 175.872C276.675 182.857 282.336 188.52 289.319 188.52Z" fill="#2F2E41"/>
<path d="M231.92 161.202L240.681 162.663L245.062 175.321L232.408 183.111L217.806 161.202H231.434H231.92Z" fill="#A0616A"/>
<path d="M256.743 180.676C268.033 180.676 277.185 171.521 277.185 160.228C277.185 148.935 268.033 139.78 256.743 139.78C245.453 139.78 236.301 148.935 236.301 160.228C236.301 171.521 245.453 180.676 256.743 180.676Z" fill="#A0616A"/>
<path d="M143.825 85.7388C143.825 85.7388 94.1798 91.0943 85.4189 90.1205C76.658 89.1468 72.7642 88.1731 72.7642 88.1731C72.7642 88.1731 66.9236 95.9628 69.8439 99.3709C71.4794 101.335 73.4585 102.984 75.6845 104.239C75.6845 104.239 81.0384 102.779 84.9322 104.239C88.8259 105.7 128.25 112.029 135.064 106.187C141.878 100.345 143.825 85.7388 143.825 85.7388Z" fill="#2F2E41"/>
<path d="M147.232 194.308C147.232 194.308 114.622 185.058 108.781 144.162V140.267C108.781 140.267 102.329 151.59 100.02 153.899C97.3434 156.577 87.8524 180.676 88.3391 183.111C88.8258 185.545 88.3391 186.519 88.3391 186.519L74.2243 185.058V180.676C74.2243 180.676 81.7685 158.037 82.2552 152.682C82.7419 147.326 100.994 110.082 100.994 110.082C100.994 110.082 107.808 95.9629 119.489 110.082C131.17 124.201 132.144 133.938 132.144 133.938L147.232 163.149L147.232 194.308Z" fill="#2F2E41"/>
<path d="M74.2243 86.7125L58.6494 81.3571C58.6494 81.3571 44.0479 70.6462 47.4549 81.3571C50.8619 92.068 66.4369 115.437 70.8173 113.003C75.1978 110.569 80.4659 104.526 79.292 103.653C78.1181 102.779 70.3306 96.4497 74.2243 86.7125Z" fill="#2F2E41"/>
<path d="M76.1069 177.802L63.5341 183.944C63.5341 183.944 48.3298 186.284 56.8091 190.671C65.2885 195.058 88.6798 199.738 89.8493 195.643C91.0189 191.549 90.5549 184.753 89.3249 184.933C88.095 185.114 79.6156 185.991 76.1069 177.802Z" fill="#2F2E41"/>
<path d="M140.905 162.176C140.905 162.176 134.577 189.44 145.285 195.282C155.993 201.125 230.947 202.098 236.788 191.387C242.628 180.676 239.708 180.676 239.708 180.676L224.133 163.149L236.788 162.176C236.788 162.176 236.788 158.281 232.407 157.794C228.027 157.307 214.399 152.439 202.718 155.847C191.036 159.255 184.222 149.031 184.222 149.031L140.905 162.176Z" fill="#575A89"/>
<path d="M132.63 76.9753L124.356 122.253L181.302 115.437L191.523 74.541L132.63 76.9753Z" fill="#3F3D56"/>
<path d="M134.334 78.6794L127.52 119.089L179.355 113.003L189.333 76.2451L134.334 78.6794Z" fill="white"/>
<path d="M126.303 122.74L124.356 122.253L123.383 124.201L138.958 167.531L140.423 166.971L140.904 164.123L126.303 122.74Z" fill="#B3B3B3"/>
<path d="M124.356 121.766L139.931 167.044L198.824 158.281L181.302 115.437L124.356 121.766Z" fill="#D0CDE1"/>
<path d="M132.144 120.306V122.74L175.461 117.872L174.975 115.437L132.144 120.306Z" fill="#3F3D56"/>
<path d="M133.117 125.175L139.931 144.162L184.222 138.807L176.435 120.793L133.117 125.175Z" fill="#3F3D56"/>
<path d="M188.603 151.952L187.143 148.057C187.143 148.057 175.948 128.582 170.108 132.477C164.267 136.372 182.276 155.36 182.276 155.36H188.116L188.603 151.952Z" fill="#A0616A"/>
<path d="M151.612 154.873L150.152 149.031C150.152 149.031 146.258 131.017 153.072 131.99C159.887 132.964 161.833 150.004 161.833 150.004L161.347 153.899L151.612 154.873Z" fill="#A0616A"/>
<path d="M163.294 152.439C163.294 152.439 150.639 150.491 150.152 153.412C149.665 156.333 147.232 200.151 159.4 201.611C171.568 203.072 231.921 209.401 225.593 194.308C219.266 179.216 209.532 181.163 209.532 181.163L168.161 185.545L163.294 152.439Z" fill="#575A89"/>
<path d="M201.501 158.037L188.603 149.031L180.085 155.603L190.793 167.288L201.501 158.037Z" fill="#575A89"/>
<path opacity="0.2" d="M166.944 166.801L168.891 185.302L202.474 183.354L173.271 182.867L166.944 166.801Z" fill="black"/>
<path d="M266.834 188.287C280.274 188.287 291.17 177.388 291.17 163.944C291.17 150.5 280.274 139.601 266.834 139.601C253.394 139.601 242.498 150.5 242.498 163.944C242.498 177.388 253.394 188.287 266.834 188.287Z" fill="#2F2E41"/>
<path d="M141.635 92.7982L171.811 91.7475L174.731 80.6269L143.582 81.5672L141.635 92.7982Z" fill="#FFAA85"/>
<path d="M133.847 99.1276L179.599 97.6669L180.085 95.7193L134.334 97.3307L133.847 99.1276Z" fill="#E6E6E6"/>
<path d="M132.874 103.996L178.625 102.535L179.112 100.588L133.36 102.199L132.874 103.996Z" fill="#E6E6E6"/>
<path d="M132.387 107.891L178.138 106.43L178.625 104.483L132.874 106.094L132.387 107.891Z" fill="#E6E6E6"/>
</g>
<defs>
<linearGradient id="paint0_linear_7_58" x1="259.907" y1="174.847" x2="259.907" y2="204.383" gradientUnits="userSpaceOnUse">
<stop stop-color="#6C63FF"/>
<stop offset="1" stop-color="#6C63FF" stop-opacity="0"/>
</linearGradient>
<clipPath id="clip0_7_58">
<rect width="346" height="255" fill="white" transform="translate(0 -40)"/>
</clipPath>
</defs>
</svg>
